<svg xmlns="http://www.w3.org/2000/svg" viewBox="0 0 800 600" width="800" height="600">
  <!-- Fondo con gradiente de atardecer -->
  <defs>
    <linearGradient id="sunset" x1="0%" y1="0%" x2="0%" y2="100%">
      <stop offset="0%" style="stop-color:#f39c12;stop-opacity:1" />
      <stop offset="100%" style="stop-color:#e74c3c;stop-opacity:1" />
    </linearGradient>
  </defs>
  <rect x="0" y="0" width="800" height="600" fill="url(#sunset)"/>
  
  <!-- Montañas y terreno minero -->
  <path d="M0,350 L150,200 L300,300 L450,180 L600,250 L800,300 L800,600 L0,600 Z" fill="#7f8c8d"/>
  
  <!-- Comunidad/Pueblo minero -->
  <g transform="translate(400,400)">
    <!-- Edificios principales -->
    <rect x="-200" y="-50" width="400" height="150" fill="#34495e"/>
    
    <!-- Casas -->
    <g transform="translate(-150,0)">
      <rect x="-30" y="-80" width="60" height="80" fill="#e67e22"/>
      <path d="M-35,-80 L0,-110 L35,-80 Z" fill="#d35400"/>
      <rect x="-10" y="-30" width="20" height="30" fill="#c0392b"/>
      <rect x="-20" y="-60" width="10" height="15" fill="#3498db"/>
      <rect x="10" y="-60" width="10" height="15" fill="#3498db"/>
    </g>
    
    <g transform="translate(-50,0)">
      <rect x="-30" y="-70" width="60" height="70" fill="#16a085"/>
      <path d="M-35,-70 L0,-100 L35,-70 Z" fill="#1abc9c"/>
      <rect x="-10" y="-30" width="20" height="30" fill="#c0392b"/>
      <rect x="-20" y="-50" width="10" height="15" fill="#3498db"/>
      <rect x="10" y="-50" width="10" height="15" fill="#3498db"/>
    </g>
    
    <g transform="translate(50,0)">
      <rect x="-30" y="-75" width="60" height="75" fill="#8e44ad"/>
      <path d="M-35,-75 L0,-105 L35,-75 Z" fill="#9b59b6"/>
      <rect x="-10" y="-30" width="20" height="30" fill="#c0392b"/>
      <rect x="-20" y="-55" width="10" height="15" fill="#3498db"/>
      <rect x="10" y="-55" width="10" height="15" fill="#3498db"/>
    </g>
    
    <g transform="translate(150,0)">
      <rect x="-30" y="-85" width="60" height="85" fill="#2980b9"/>
      <path d="M-35,-85 L0,-115 L35,-85 Z" fill="#3498db"/>
      <rect x="-10" y="-30" width="20" height="30" fill="#c0392b"/>
      <rect x="-20" y="-65" width="10" height="15" fill="#3498db"/>
      <rect x="10" y="-65" width="10" height="15" fill="#3498db"/>
    </g>
    
    <!-- Centro comunitario -->
    <g transform="translate(0,-20)">
      <rect x="-40" y="-100" width="80" height="100" fill="#ecf0f1"/>
      <rect x="-30" y="-90" width="60" height="20" fill="#3498db"/>
      <rect x="-15" y="-40" width="30" height="40" fill="#e74c3c"/>
      <rect x="-25" y="-65" width="15" height="20" fill="#3498db"/>
      <rect x="10" y="-65" width="15" height="20" fill="#3498db"/>
    </g>
    
    <!-- Personas (representando comunidad) -->
    <g transform="translate(-100,-20) scale(0.7)">
      <!-- Persona 1 -->
      <circle cx="0" cy="-20" r="10" fill="#f39c12"/>
      <line x1="0" y1="-10" x2="0" y2="10" stroke="#f39c12" stroke-width="5"/>
      <line x1="0" y1="0" x2="-10" y2="10" stroke="#f39c12" stroke-width="4"/>
      <line x1="0" y1="0" x2="10" y2="10" stroke="#f39c12" stroke-width="4"/>
      <line x1="0" y1="10" x2="-8" y2="25" stroke="#f39c12" stroke-width="4"/>
      <line x1="0" y1="10" x2="8" y2="25" stroke="#f39c12" stroke-width="4"/>
    </g>
    
    <g transform="translate(-70,-20) scale(0.6)">
      <!-- Persona 2 -->
      <circle cx="0" cy="-20" r="10" fill="#e74c3c"/>
      <line x1="0" y1="-10" x2="0" y2="10" stroke="#e74c3c" stroke-width="5"/>
      <line x1="0" y1="0" x2="-10" y2="10" stroke="#e74c3c" stroke-width="4"/>
      <line x1="0" y1="0" x2="10" y2="10" stroke="#e74c3c" stroke-width="4"/>
      <line x1="0" y1="10" x2="-8" y2="25" stroke="#e74c3c" stroke-width="4"/>
      <line x1="0" y1="10" x2="8" y2="25" stroke="#e74c3c" stroke-width="4"/>
    </g>
    
    <g transform="translate(70,-20) scale(0.65)">
      <!-- Persona 3 -->
      <circle cx="0" cy="-20" r="10" fill="#3498db"/>
      <line x1="0" y1="-10" x2="0" y2="10" stroke="#3498db" stroke-width="5"/>
      <line x1="0" y1="0" x2="-10" y2="10" stroke="#3498db" stroke-width="4"/>
      <line x1="0" y1="0" x2="10" y2="10" stroke="#3498db" stroke-width="4"/>
      <line x1="0" y1="10" x2="-8" y2="25" stroke="#3498db" stroke-width="4"/>
      <line x1="0" y1="10" x2="8" y2="25" stroke="#3498db" stroke-width="4"/>
    </g>
    
    <g transform="translate(100,-20) scale(0.55)">
      <!-- Persona 4 -->
      <circle cx="0" cy="-20" r="10" fill="#2ecc71"/>
      <line x1="0" y1="-10" x2="0" y2="10" stroke="#2ecc71" stroke-width="5"/>
      <line x1="0" y1="0" x2="-10" y2="10" stroke="#2ecc71" stroke-width="4"/>
      <line x1="0" y1="0" x2="10" y2="10" stroke="#2ecc71" stroke-width="4"/>
      <line x1="0" y1="10" x2="-8" y2="25" stroke="#2ecc71" stroke-width="4"/>
      <line x1="0" y1="10" x2="8" y2="25" stroke="#2ecc71" stroke-width="4"/>
    </g>
  </g>
  
  <!-- Instalación minera en el fondo -->
  <g transform="translate(150,250)">
    <rect x="-50" y="-80" width="100" height="80" fill="#7f8c8d"/>
    <rect x="-40" y="-100" width="20" height="20" fill="#95a5a6"/>
    <rect x="20" y="-110" width="20" height="30" fill="#95a5a6"/>
  </g>
  
  <!-- Camino que conecta la mina con la comunidad -->
  <path d="M200,250 C250,300 300,350 400,380" stroke="#95a5a6" stroke-width="15" fill="none"/>
  
  <!-- Sol/Luna -->
  <circle cx="150" cy="100" r="40" fill="#f1c40f"/>
</svg>