<svg xmlns="http://www.w3.org/2000/svg" viewBox="0 0 800 600" width="800" height="600">
  <!-- Fondo con gradiente realista de atardecer -->
  <defs>
    <linearGradient id="sunset" x1="0%" y1="0%" x2="0%" y2="100%">
      <stop offset="0%" style="stop-color:#1a2a3a;stop-opacity:1" />
      <stop offset="30%" style="stop-color:#2c3e50;stop-opacity:1" />
      <stop offset="60%" style="stop-color:#e67e22;stop-opacity:1" />
      <stop offset="100%" style="stop-color:#d35400;stop-opacity:1" />
    </linearGradient>
    
    <!-- Textura para montañas -->
    <pattern id="mountainTexture" width="100" height="100" patternUnits="userSpaceOnUse">
      <path d="M0,50 Q25,30 50,50 T100,50" stroke="#5d6d7e" stroke-width="1" fill="none" />
      <path d="M0,70 Q25,50 50,70 T100,70" stroke="#5d6d7e" stroke-width="0.8" fill="none" />
      <path d="M0,30 Q25,10 50,30 T100,30" stroke="#5d6d7e" stroke-width="0.8" fill="none" />
    </pattern>
    
    <!-- Textura para ventanas iluminadas -->
    <radialGradient id="windowLight" cx="50%" cy="50%" r="50%" fx="50%" fy="50%">
      <stop offset="0%" style="stop-color:#f1c40f;stop-opacity:1" />
      <stop offset="100%" style="stop-color:#f39c12;stop-opacity:0.7" />
    </radialGradient>
  </defs>
  
  <rect x="0" y="0" width="800" height="600" fill="url(#sunset)"/>
  
  <!-- Montañas con textura realista -->
  <path d="M0,350 L150,200 L300,300 L450,180 L600,250 L800,300 L800,600 L0,600 Z" fill="#34495e"/>
  <path d="M0,350 L150,200 L300,300 L450,180 L600,250 L800,300 L800,600 L0,600 Z" fill="url(#mountainTexture)" opacity="0.7"/>
  
  <!-- Complejo minero moderno en el fondo -->
  <g transform="translate(150,250)">
    <!-- Edificio principal de operaciones -->
    <rect x="-70" y="-100" width="140" height="100" fill="#34495e"/>
    <rect x="-60" y="-90" width="120" height="80" fill="#2c3e50"/>
    
    <!-- Ventanas iluminadas -->
    <rect x="-50" y="-80" width="10" height="10" fill="url(#windowLight)" opacity="0.8"/>
    <rect x="-30" y="-80" width="10" height="10" fill="url(#windowLight)" opacity="0.8"/>
    <rect x="-10" y="-80" width="10" height="10" fill="url(#windowLight)" opacity="0.8"/>
    <rect x="10" y="-80" width="10" height="10" fill="url(#windowLight)" opacity="0.8"/>
    <rect x="30" y="-80" width="10" height="10" fill="url(#windowLight)" opacity="0.8"/>
    
    <rect x="-50" y="-60" width="10" height="10" fill="url(#windowLight)" opacity="0.8"/>
    <rect x="-30" y="-60" width="10" height="10" fill="url(#windowLight)" opacity="0.8"/>
    <rect x="-10" y="-60" width="10" height="10" fill="url(#windowLight)" opacity="0.8"/>
    <rect x="10" y="-60" width="10" height="10" fill="url(#windowLight)" opacity="0.8"/>
    <rect x="30" y="-60" width="10" height="10" fill="url(#windowLight)" opacity="0.8"/>
    
    <rect x="-50" y="-40" width="10" height="10" fill="url(#windowLight)" opacity="0.8"/>
    <rect x="-30" y="-40" width="10" height="10" fill="url(#windowLight)" opacity="0.8"/>
    <rect x="-10" y="-40" width="10" height="10" fill="url(#windowLight)" opacity="0.8"/>
    <rect x="10" y="-40" width="10" height="10" fill="url(#windowLight)" opacity="0.8"/>
    <rect x="30" y="-40" width="10" height="10" fill="url(#windowLight)" opacity="0.8"/>
    
    <!-- Torres y estructuras -->
    <rect x="-40" y="-130" width="15" height="30" fill="#7f8c8d"/>
    <rect x="-45" y="-140" width="25" height="10" fill="#95a5a6"/>
    <circle cx="-32.5" cy="-145" r="3" fill="#e74c3c"/>
    
    <rect x="25" y="-120" width="15" height="20" fill="#7f8c8d"/>
    <rect x="20" y="-130" width="25" height="10" fill="#95a5a6"/>
    <circle cx="32.5" cy="-135" r="3" fill="#e74c3c"/>
    
    <!-- Equipos mineros -->
    <g transform="translate(-90,-20)">
      <!-- Camión minero -->
      <rect x="-20" y="-15" width="40" height="20" rx="5" fill="#f1c40f"/>
      <rect x="-15" y="-25" width="30" height="10" rx="2" fill="#f39c12"/>
      <circle cx="-10" cy="5" r="8" fill="#34495e"/>
      <circle cx="-10" cy="5" r="4" fill="#2c3e50"/>
      <circle cx="10" cy="5" r="8" fill="#34495e"/>
      <circle cx="10" cy="5" r="4" fill="#2c3e50"/>
    </g>
    
    <!-- Luces de operación -->
    <circle cx="-60" cy="-10" r="5" fill="#f1c40f" opacity="0.8"/>
    <path d="M-60,-10 L-80,-30 L-80,10 L-60,30 Z" fill="#f1c40f" opacity="0.1"/>
    
    <circle cx="60" cy="-10" r="5" fill="#f1c40f" opacity="0.8"/>
    <path d="M60,-10 L80,-30 L80,10 L60,30 Z" fill="#f1c40f" opacity="0.1"/>
  </g>
  
  <!-- Comunidad moderna y desarrollada -->
  <g transform="translate(450,400)">
    <!-- Infraestructura urbana -->
    <rect x="-200" y="-50" width="400" height="10" fill="#7f8c8d"/>
    
    <!-- Edificios modernos -->
    <g transform="translate(-150,0)">
      <!-- Edificio residencial moderno -->
      <rect x="-30" y="-100" width="60" height="100" fill="#2980b9"/>
      <rect x="-25" y="-95" width="50" height="90" fill="#3498db"/>
      
      <!-- Ventanas -->
      <g>
        <rect x="-20" y="-90" width="10" height="10" fill="#ecf0f1" opacity="0.7"/>
        <rect x="-5" y="-90" width="10" height="10" fill="#ecf0f1" opacity="0.7"/>
        <rect x="10" y="-90" width="10" height="10" fill="#ecf0f1" opacity="0.7"/>
        
        <rect x="-20" y="-75" width="10" height="10" fill="#ecf0f1" opacity="0.7"/>
        <rect x="-5" y="-75" width="10" height="10" fill="#ecf0f1" opacity="0.7"/>
        <rect x="10" y="-75" width="10" height="10" fill="#ecf0f1" opacity="0.7"/>
        
        <rect x="-20" y="-60" width="10" height="10" fill="#ecf0f1" opacity="0.7"/>
        <rect x="-5" y="-60" width="10" height="10" fill="#ecf0f1" opacity="0.7"/>
        <rect x="10" y="-60" width="10" height="10" fill="#ecf0f1" opacity="0.7"/>
        
        <rect x="-20" y="-45" width="10" height="10" fill="#ecf0f1" opacity="0.7"/>
        <rect x="-5" y="-45" width="10" height="10" fill="#ecf0f1" opacity="0.7"/>
        <rect x="10" y="-45" width="10" height="10" fill="#ecf0f1" opacity="0.7"/>
        
        <rect x="-20" y="-30" width="10" height="10" fill="#ecf0f1" opacity="0.7"/>
        <rect x="-5" y="-30" width="10" height="10" fill="#ecf0f1" opacity="0.7"/>
        <rect x="10" y="-30" width="10" height="10" fill="#ecf0f1" opacity="0.7"/>
        
        <rect x="-20" y="-15" width="10" height="10" fill="#ecf0f1" opacity="0.7"/>
        <rect x="-5" y="-15" width="10" height="10" fill="#ecf0f1" opacity="0.7"/>
        <rect x="10" y="-15" width="10" height="10" fill="#ecf0f1" opacity="0.7"/>
      </g>
      
      <!-- Entrada -->
      <rect x="-10" y="-10" width="20" height="10" fill="#2c3e50"/>
    </g>
    
    <g transform="translate(-50,0)">
      <!-- Edificio de oficinas moderno -->
      <rect x="-40" y="-120" width="80" height="120" fill="#16a085"/>
      <rect x="-35" y="-115" width="70" height="110" fill="#1abc9c"/>
      
      <!-- Fachada de cristal -->
      <g>
        <rect x="-30" y="-110" width="60" height="15" fill="#ecf0f1" opacity="0.5"/>
        <rect x="-30" y="-90" width="60" height="15" fill="#ecf0f1" opacity="0.5"/>
        <rect x="-30" y="-70" width="60" height="15" fill="#ecf0f1" opacity="0.5"/>
        <rect x="-30" y="-50" width="60" height="15" fill="#ecf0f1" opacity="0.5"/>
        <rect x="-30" y="-30" width="60" height="15" fill="#ecf0f1" opacity="0.5"/>
      </g>
      
      <!-- Entrada -->
      <rect x="-15" y="-15" width="30" height="15" fill="#16a085"/>
    </g>
    
    <g transform="translate(50,0)">
      <!-- Centro comunitario moderno -->
      <rect x="-45" y="-90" width="90" height="90" fill="#8e44ad"/>
      <rect x="-40" y="-85" width="80" height="80" fill="#9b59b6"/>
      
      <!-- Ventanas y detalles -->
      <rect x="-35" y="-80" width="70" height="20" rx="5" fill="#ecf0f1" opacity="0.6"/>
      <rect x="-35" y="-55" width="70" height="20" rx="5" fill="#ecf0f1" opacity="0.6"/>
      <rect x="-35" y="-30" width="70" height="20" rx="5" fill="#ecf0f1" opacity="0.6"/>
      
      <!-- Entrada principal -->
      <rect x="-20" y="-10" width="40" height="10" fill="#8e44ad"/>
      <rect x="-15" y="-10" width="30" height="10" fill="#ecf0f1" opacity="0.5"/>
    </g>
    
    <g transform="translate(150,0)">
      <!-- Hospital o centro de salud -->
      <rect x="-40" y="-80" width="80" height="80" fill="#ecf0f1"/>
      <rect x="-35" y="-75" width="70" height="70" fill="#bdc3c7"/>
      
      <!-- Símbolo médico -->
      <rect x="-5" y="-60" width="10" height="30" fill="#e74c3c"/>
      <rect x="-15" y="-50" width="30" height="10" fill="#e74c3c"/>
      
      <!-- Ventanas -->
      <rect x="-30" y="-70" width="15" height="15" fill="#ecf0f1" opacity="0.8"/>
      <rect x="-10" y="-70" width="15" height="15" fill="#ecf0f1" opacity="0.8"/>
      <rect x="15" y="-70" width="15" height="15" fill="#ecf0f1" opacity="0.8"/>
      
      <rect x="-30" y="-40" width="15" height="15" fill="#ecf0f1" opacity="0.8"/>
      <rect x="15" y="-40" width="15" height="15" fill="#ecf0f1" opacity="0.8"/>
      
      <!-- Entrada -->
      <rect x="-15" y="-15" width="30" height="15" fill="#95a5a6"/>
    </g>
  </g>
  
  <!-- Camino que conecta la mina con la comunidad -->
  <path d="M200,250 C250,300 300,350 400,380 Q450,400 500,400" stroke="#95a5a6" stroke-width="15" fill="none"/>
  
  <!-- Vehículos en el camino -->
  <g transform="translate(300,330)">
    <!-- Camión de transporte -->
    <rect x="-15" y="-10" width="30" height="15" rx="3" fill="#7f8c8d"/>
    <rect x="-12" y="-15" width="24" height="5" rx="1" fill="#95a5a6"/>
    <circle cx="-8" cy="5" r="5" fill="#34495e"/>
    <circle cx="8" cy="5" r="5" fill="#34495e"/>
    <circle cx="-8" cy="5" r="2" fill="#2c3e50"/>
    <circle cx="8" cy="5" r="2" fill="#2c3e50"/>
    <!-- Luces -->
    <rect x="-10" y="-8" width="4" height="2" fill="#f1c40f"/>
    <rect x="6" y="-8" width="4" height="2" fill="#f1c40f"/>
  </g>
  
  <g transform="translate(350,360)">
    <!-- Camioneta -->
    <rect x="-12" y="-8" width="24" height="10" rx="3" fill="#2980b9"/>
    <rect x="-8" y="-12" width="16" height="4" rx="1" fill="#3498db"/>
    <circle cx="-6" cy="2" r="4" fill="#34495e"/>
    <circle cx="6" cy="2" r="4" fill="#34495e"/>
    <circle cx="-6" cy="2" r="1.5" fill="#2c3e50"/>
    <circle cx="6" cy="2" r="1.5" fill="#2c3e50"/>
    <!-- Luces -->
    <rect x="-8" y="-6" width="3" height="1.5" fill="#f1c40f"/>
    <rect x="5" y="-6" width="3" height="1.5" fill="#f1c40f"/>
  </g>
  
  <!-- Profesionales en la comunidad -->
  <g transform="translate(400,380)">
    <!-- Grupo de profesionales -->
    <g transform="translate(-80,-20) scale(0.8)">
      <!-- Ingeniero/Profesional 1 -->
      <rect x="-5" y="-25" width="10" height="15" rx="3" fill="#34495e"/><!-- Cabeza -->
      <rect x="-7" y="-10" width="14" height="20" fill="#2980b9"/><!-- Cuerpo -->
      <rect x="-7" y="10" width="5" height="15" fill="#34495e"/><!-- Pierna izquierda -->
      <rect x="2" y="10" width="5" height="15" fill="#34495e"/><!-- Pierna derecha -->
      <rect x="-12" y="-5" width="5" height="10" fill="#2980b9"/><!-- Brazo izquierdo -->
      <rect x="7" y="-5" width="5" height="10" fill="#2980b9"/><!-- Brazo derecho -->
      <rect x="-3" y="-5" width="6" height="3" fill="#ecf0f1"/><!-- Detalle uniforme -->
      <circle cx="-2" cy="-20" r="1" fill="#ecf0f1"/><!-- Ojo -->
      <circle cx="2" cy="-20" r="1" fill="#ecf0f1"/><!-- Ojo -->
      <rect x="-3" y="-17" width="6" height="1" fill="#ecf0f1"/><!-- Boca -->
      <rect x="-4" y="-28" width="8" height="3" fill="#f1c40f"/><!-- Casco -->
    </g>
    
    <g transform="translate(-50,-20) scale(0.8)">
      <!-- Ingeniero/Profesional 2 -->
      <rect x="-5" y="-25" width="10" height="15" rx="3" fill="#34495e"/><!-- Cabeza -->
      <rect x="-7" y="-10" width="14" height="20" fill="#e74c3c"/><!-- Cuerpo -->
      <rect x="-7" y="10" width="5" height="15" fill="#34495e"/><!-- Pierna izquierda -->
      <rect x="2" y="10" width="5" height="15" fill="#34495e"/><!-- Pierna derecha -->
      <rect x="-12" y="-5" width="5" height="10" fill="#e74c3c"/><!-- Brazo izquierdo -->
      <rect x="7" y="-5" width="5" height="10" fill="#e74c3c"/><!-- Brazo derecho -->
      <rect x="-3" y="-5" width="6" height="3" fill="#ecf0f1"/><!-- Detalle uniforme -->
      <circle cx="-2" cy="-20" r="1" fill="#ecf0f1"/><!-- Ojo -->
      <circle cx="2" cy="-20" r="1" fill="#ecf0f1"/><!-- Ojo -->
      <rect x="-3" y="-17" width="6" height="1" fill="#ecf0f1"/><!-- Boca -->
      <rect x="-4" y="-28" width="8" height="3" fill="#f1c40f"/><!-- Casco -->
    </g>
    
    <g transform="translate(50,-20) scale(0.8)">
      <!-- Ingeniero/Profesional 3 -->
      <rect x="-5" y="-25" width="10" height="15" rx="3" fill="#34495e"/><!-- Cabeza -->
      <rect x="-7" y="-10" width="14" height="20" fill="#27ae60"/><!-- Cuerpo -->
      <rect x="-7" y="10" width="5" height="15" fill="#34495e"/><!-- Pierna izquierda -->
      <rect x="2" y="10" width="5" height="15" fill="#34495e"/><!-- Pierna derecha -->
      <rect x="-12" y="-5" width="5" height="10" fill="#27ae60"/><!-- Brazo izquierdo -->
      <rect x="7" y="-5" width="5" height="10" fill="#27ae60"/><!-- Brazo derecho -->
      <rect x="-3" y="-5" width="6" height="3" fill="#ecf0f1"/><!-- Detalle uniforme -->
      <circle cx="-2" cy="-20" r="1" fill="#ecf0f1"/><!-- Ojo -->
      <circle cx="2" cy="-20" r="1" fill="#ecf0f1"/><!-- Ojo -->
      <rect x="-3" y="-17" width="6" height="1" fill="#ecf0f1"/><!-- Boca -->
      <rect x="-4" y="-28" width="8" height="3" fill="#f1c40f"/><!-- Casco -->
    </g>
    
    <g transform="translate(80,-20) scale(0.8)">
      <!-- Ingeniero/Profesional 4 -->
      <rect x="-5" y="-25" width="10" height="15" rx="3" fill="#34495e"/><!-- Cabeza -->
      <rect x="-7" y="-10" width="14" height="20" fill="#8e44ad"/><!-- Cuerpo -->
      <rect x="-7" y="10" width="5" height="15" fill="#34495e"/><!-- Pierna izquierda -->
      <rect x="2" y="10" width="5" height="15" fill="#34495e"/><!-- Pierna derecha -->
      <rect x="-12" y="-5" width="5" height="10" fill="#8e44ad"/><!-- Brazo izquierdo -->
      <rect x="7" y="-5" width="5" height="10" fill="#8e44ad"/><!-- Brazo derecho -->
      <rect x="-3" y="-5" width="6" height="3" fill="#ecf0f1"/><!-- Detalle uniforme -->
      <circle cx="-2" cy="-20" r="1" fill="#ecf0f1"/><!-- Ojo -->
      <circle cx="2" cy="-20" r="1" fill="#ecf0f1"/><!-- Ojo -->
      <rect x="-3" y="-17" width="6" height="1" fill="#ecf0f1"/><!-- Boca -->
      <rect x="-4" y="-28" width="8" height="3" fill="#f1c40f"/><!-- Casco -->
    </g>
  </g>
  
  <!-- Luna -->
  <g transform="translate(150,100)">
    <circle cx="0" cy="0" r="40" fill="#ecf0f1"/>
    <circle cx="15" cy="-10" r="35" fill="url(#sunset)" opacity="0.2"/>
    
    <!-- Cráteres -->
    <circle cx="-15" cy="10" r="8" fill="#bdc3c7"/>
    <circle cx="10" cy="15" r="5" fill="#bdc3c7"/>
    <circle cx="-10" cy="-15" r="7" fill="#bdc3c7"/>
    <circle cx="20" cy="-5" r="4" fill="#bdc3c7"/>
    
    <!-- Resplandor lunar -->
    <circle cx="0" cy="0" r="50" fill="#ecf0f1" opacity="0.2"/>
    <circle cx="0" cy="0" r="60" fill="#ecf0f1" opacity="0.1"/>
  </g>
  
  <!-- Estrellas -->
  <g>
    <circle cx="50" cy="50" r="1.5" fill="#ecf0f1"/>
    <circle cx="100" cy="70" r="1" fill="#ecf0f1"/>
    <circle cx="200" cy="40" r="1.5" fill="#ecf0f1"/>
    <circle cx="250" cy="90" r="1" fill="#ecf0f1"/>
    <circle cx="300" cy="60" r="1.5" fill="#ecf0f1"/>
    <circle cx="350" cy="30" r="1" fill="#ecf0f1"/>
    <circle cx="400" cy="80" r="1.5" fill="#ecf0f1"/>
    <circle cx="450" cy="50" r="1" fill="#ecf0f1"/>
    <circle cx="500" cy="40" r="1.5" fill="#ecf0f1"/>
    <circle cx="550" cy="70" r="1" fill="#ecf0f1"/>
    <circle cx="600" cy="30" r="1.5" fill="#ecf0f1"/>
    <circle cx="650" cy="60" r="1" fill="#ecf0f1"/>
    <circle cx="700" cy="50" r="1.5" fill="#ecf0f1"/>
    <circle cx="750" cy="80" r="1" fill="#ecf0f1"/>
  </g>
</svg>